<svg xmlns="http://www.w3.org/2000/svg" viewBox="0 0 1200 300" role="img" aria-labelledby="t d"><title id="t">A+ Techucation</title><desc id="d">A+ Techucation Technology Within Us</desc><defs><linearGradient id="b" x1="0" y1="0" x2="1" y2="1"><stop stop-color="#0d6fd3"/><stop offset="1" stop-color="#0d2b4d"/></linearGradient><linearGradient id="r" x1="0" y1="0" x2="1" y2="1"><stop stop-color="#ff3131"/><stop offset="1" stop-color="#c61019"/></linearGradient></defs><g transform="translate(30 24)"><circle cx="120" cy="120" r="88" fill="url(#b)"/><path d="M52 100c41-42 100-60 164-51M36 132c55 22 113 26 173 12M62 179c44-19 95-27 144-20" fill="none" stroke="#fff" stroke-width="4" opacity=".82"/><path d="M103 37c-5 31-7 62-7 94s2 63 7 94M142 35c6 31 8 63 8 96s-2 64-8 94" fill="none" stroke="#fff" stroke-width="4" opacity=".78"/><circle cx="120" cy="120" r="88" fill="none" stroke="#fff" stroke-width="5" opacity=".75"/><path d="M39 49l86-33 87 32-87 33z" fill="#08213f"/><path d="M189 55v54" stroke="#ef2b2d" stroke-width="6"/><circle cx="189" cy="113" r="7" fill="#ef2b2d"/><path d="M19 175c56-44 135-54 216-22" fill="none" stroke="url(#r)" stroke-width="16" stroke-linecap="round"/></g><g transform="translate(250 35)"><path d="M28 180L108 26h45l86 154h-53l-17-34H91l-16 34zm86-77h33l-17-37z" fill="url(#b)"/><path d="M46 184c88-30 154-77 191-141-8 70-75 135-180 173z" fill="url(#r)"/><rect x="215" y="23" width="16" height="50" rx="2" fill="#ef2b2d"/><rect x="198" y="40" width="50" height="16" rx="2" fill="#ef2b2d"/><text x="255" y="171" font-family="Arial,Helvetica,sans-serif" font-size="92" font-weight="800" letter-spacing="-3"><tspan fill="#ef2b2d">TECH</tspan><tspan fill="#0d6fd3">UCATION</tspan></text><line x1="45" y1="220" x2="225" y2="220" stroke="#0d2b4d" stroke-width="4"/><text x="245" y="233" font-family="Arial,Helvetica,sans-serif" font-size="30" letter-spacing="9" fill="#0d2b4d">TECHNOLOGY WITHIN <tspan fill="#ef2b2d">US</tspan></text><line x1="880" y1="220" x2="1040" y2="220" stroke="#0d2b4d" stroke-width="4"/></g></svg>